<?xml version="1.0" encoding="iso-8859-1"?>
<!-- Generator: Adobe Illustrator 19.0.0, SVG Export Plug-In . SVG Version: 6.00 Build 0)  -->
<svg version="1.1" id="Layer_1" xmlns="http://www.w3.org/2000/svg" xmlns:xlink="http://www.w3.org/1999/xlink" x="0px" y="0px"
	 viewBox="0 0 512 512" style="enable-background:new 0 0 512 512;" xml:space="preserve">
<circle style="fill:#EBF0F2;" cx="256" cy="256" r="256"/>
<path d="M35.336,321.976V42.696c0-4.824,4.136-8.968,8.968-8.968h423.4c4.824,0,8.968,4.136,8.968,8.968v279.28H35.336z"/>
<g>
	<path style="fill:#CFDCE5;" d="M476.664,321.976v35.856c0,4.824-4.136,8.968-8.968,8.968h-423.4c-4.824,0-8.968-4.136-8.968-8.968
		v-35.856H476.664z"/>
	<rect x="161.52" y="430.24" style="fill:#CFDCE5;" width="188.944" height="8.968"/>
</g>
<polygon style="fill:#AAC1CE;" points="318.752,430.24 193.248,430.24 202.216,366.8 309.784,366.8 "/>
<rect x="53.264" y="51.664" style="fill:#FFFFFF;" width="405.472" height="252.384"/>
<polygon style="fill:#8BA0AE;" points="309.784,366.8 202.216,366.8 197.208,402.208 311.4,378.2 "/>
<path style="fill:#AAC1CE;" d="M272.384,104.528h-5.312V85.392c0-6.104-4.968-11.072-11.072-11.072
	c-6.104,0-11.072,4.968-11.072,11.072v19.136h-5.312V85.392c0-9.032,7.352-16.384,16.384-16.384s16.384,7.352,16.384,16.384
	L272.384,104.528L272.384,104.528z"/>
<g>
	<rect x="239.616" y="98.92" style="fill:#8BA0AE;" width="5.312" height="2.128"/>
	<rect x="267.072" y="98.92" style="fill:#8BA0AE;" width="5.312" height="2.128"/>
</g>
<rect x="234.704" y="101.048" width="42.6" height="27.048"/>
<rect x="234.704" y="128.08" width="42.6" height="8.856"/>
<g>
	<circle style="fill:#FFFFFF;" cx="256" cy="115.176" r="5.312"/>
	<rect x="253.736" y="118.032" style="fill:#FFFFFF;" width="4.536" height="9.712"/>
</g>
<g>
	<path style="fill:#CFDCE5;" d="M338.984,188.56H173.016c-9.32,0-16.88-7.56-16.88-16.88v-2.136c0-9.32,7.56-16.88,16.88-16.88
		h165.968c9.32,0,16.88,7.56,16.88,16.88v2.136C355.864,181.008,348.304,188.56,338.984,188.56z"/>
	<path style="fill:#CFDCE5;" d="M338.984,235.824H173.016c-9.32,0-16.88-7.56-16.88-16.88v-2.136c0-9.32,7.56-16.88,16.88-16.88
		h165.968c9.32,0,16.88,7.56,16.88,16.88v2.136C355.864,228.264,348.304,235.824,338.984,235.824z"/>
</g>
<circle cx="183.216" cy="217.84" r="4.784"/>
<circle cx="200.56" cy="217.84" r="4.784"/>
<circle cx="217.92" cy="217.84" r="4.784"/>
<circle cx="235.256" cy="217.84" r="4.784"/>
<circle cx="252.608" cy="217.84" r="4.784"/>
<circle cx="269.952" cy="217.84" r="4.784"/>
<path d="M178.576,177.648v-13.576h1.912l4.352,6.864c1.008,1.592,1.792,3.024,2.44,4.416l0.04-0.016
	c-0.168-1.824-0.2-3.472-0.2-5.584v-5.68h1.648v13.576H187l-4.312-6.888c-0.944-1.504-1.848-3.064-2.536-4.528l-0.064,0.024
	c0.104,1.712,0.144,3.344,0.144,5.592v5.808h-1.656V177.648z"/>
<path d="M197.192,177.648l-0.144-1.224h-0.064c-0.536,0.768-1.584,1.448-2.976,1.448c-1.976,0-2.984-1.392-2.984-2.8
	c0-2.36,2.096-3.648,5.856-3.624v-0.2c0-0.808-0.216-2.256-2.208-2.256c-0.904,0-1.848,0.28-2.536,0.728l-0.408-1.168
	c0.816-0.52,1.976-0.864,3.2-0.864c2.984,0,3.712,2.032,3.712,3.984v3.648c0,0.84,0.04,1.672,0.16,2.336h-1.608V177.648z
	 M196.936,172.672c-1.936-0.04-4.136,0.304-4.136,2.192c0,1.152,0.768,1.696,1.672,1.696c1.272,0,2.08-0.808,2.36-1.632
	c0.056-0.176,0.104-0.384,0.104-0.56V172.672z"/>
<path d="M201.52,170.536c0-1.008-0.016-1.832-0.08-2.64h1.544l0.088,1.568h0.056c0.544-0.92,1.456-1.792,3.064-1.792
	c1.328,0,2.336,0.808,2.768,1.952H209c0.296-0.544,0.68-0.968,1.088-1.272c0.584-0.44,1.224-0.68,2.16-0.68
	c1.288,0,3.2,0.84,3.2,4.224v5.744h-1.736v-5.512c0-1.872-0.688-3.008-2.12-3.008c-1.008,0-1.792,0.752-2.096,1.616
	c-0.08,0.24-0.144,0.56-0.144,0.88v6.024h-1.736v-5.84c0-1.544-0.68-2.68-2.032-2.68c-1.112,0-1.912,0.888-2.192,1.776
	c-0.104,0.264-0.144,0.568-0.144,0.864v5.88h-1.728V170.536z"/>
<path d="M219.344,173.096c0.04,2.4,1.568,3.384,3.336,3.384c1.272,0,2.04-0.216,2.704-0.496l0.304,1.264
	c-0.624,0.288-1.696,0.608-3.24,0.608c-3.008,0-4.8-1.976-4.8-4.912c0-2.944,1.736-5.256,4.568-5.256c3.184,0,4.032,2.8,4.032,4.592
	c0,0.36-0.04,0.64-0.064,0.824h-6.84V173.096z M224.536,171.824c0.016-1.128-0.472-2.88-2.464-2.88c-1.792,0-2.576,1.656-2.72,2.88
	H224.536z"/>
<rect x="204.464" y="249.92" style="fill:#E04F5F;" width="103.072" height="35.896"/>
<g>
	<path style="fill:#FFFFFF;" d="M226.896,272.504c0.792,0.488,1.936,0.88,3.144,0.88c1.8,0,2.84-0.944,2.84-2.312
		c0-1.272-0.728-2-2.56-2.704c-2.208-0.784-3.584-1.928-3.584-3.84c0-2.12,1.76-3.688,4.392-3.688c1.392,0,2.4,0.32,3.008,0.664
		l-0.488,1.432c-0.448-0.24-1.352-0.64-2.576-0.64c-1.856,0-2.56,1.104-2.56,2.032c0,1.264,0.832,1.888,2.704,2.616
		c2.296,0.888,3.464,1.992,3.464,3.992c0,2.096-1.544,3.904-4.752,3.904c-1.312,0-2.744-0.384-3.472-0.864L226.896,272.504z"/>
	<path style="fill:#FFFFFF;" d="M245.176,271.984c0,1.008,0.024,1.888,0.088,2.656h-1.568l-0.104-1.592h-0.04
		c-0.472,0.792-1.496,1.816-3.224,1.816c-1.528,0-3.368-0.84-3.368-4.264v-5.704h1.776v5.4c0,1.848,0.568,3.104,2.176,3.104
		c1.184,0,2.016-0.832,2.336-1.608c0.104-0.264,0.16-0.584,0.16-0.904v-5.984h1.776v7.08H245.176z"/>
	<path style="fill:#FFFFFF;" d="M248.064,274.64c0.04-0.664,0.08-1.648,0.08-2.512v-11.784h1.76v6.12h0.04
		c0.624-1.088,1.752-1.792,3.32-1.792c2.416,0,4.136,2.016,4.112,4.976c0,3.488-2.192,5.208-4.368,5.208
		c-1.416,0-2.536-0.536-3.264-1.832h-0.064l-0.08,1.608h-1.536V274.64z M249.896,270.736c0,0.216,0.04,0.448,0.08,0.64
		c0.344,1.232,1.368,2.08,2.656,2.08c1.848,0,2.96-1.504,2.96-3.752c0-1.952-1.008-3.624-2.896-3.624
		c-1.208,0-2.336,0.832-2.704,2.176c-0.04,0.2-0.096,0.44-0.096,0.728L249.896,270.736L249.896,270.736z"/>
	<path style="fill:#FFFFFF;" d="M259.624,267.528c0-1.008-0.016-1.832-0.08-2.64h1.544l0.088,1.568h0.056
		c0.544-0.92,1.456-1.792,3.064-1.792c1.328,0,2.336,0.808,2.768,1.952h0.04c0.296-0.544,0.68-0.968,1.088-1.272
		c0.584-0.44,1.224-0.68,2.16-0.68c1.288,0,3.2,0.84,3.2,4.224v5.744h-1.736v-5.512c0-1.872-0.688-3.008-2.12-3.008
		c-1.008,0-1.792,0.752-2.096,1.616c-0.08,0.24-0.144,0.56-0.144,0.88v6.024h-1.736V268.8c0-1.544-0.68-2.68-2.032-2.68
		c-1.112,0-1.912,0.888-2.192,1.776c-0.104,0.264-0.144,0.568-0.144,0.864v5.88h-1.736v-7.112H259.624z"/>
	<path style="fill:#FFFFFF;" d="M278.432,262.16c0.016,0.6-0.424,1.088-1.136,1.088c-0.616,0-1.064-0.488-1.064-1.088
		c0-0.624,0.464-1.112,1.112-1.112C278.008,261.048,278.432,261.528,278.432,262.16z M276.456,274.64v-9.752h1.776v9.752H276.456z"
		/>
	<path style="fill:#FFFFFF;" d="M283.304,262.096v2.8h2.536v1.352h-2.536v5.256c0,1.2,0.344,1.888,1.336,1.888
		c0.464,0,0.808-0.064,1.024-0.12l0.08,1.328c-0.336,0.144-0.88,0.24-1.568,0.24c-0.824,0-1.488-0.264-1.912-0.752
		c-0.496-0.52-0.68-1.392-0.68-2.528v-5.32h-1.512v-1.352h1.512v-2.336L283.304,262.096z"/>
</g>
<g style="opacity:0.35;">
	<polygon style="fill:#FFFFFF;" points="204.464,272.664 204.464,249.952 227.176,249.952 	"/>
</g>
<g>
</g>
<g>
</g>
<g>
</g>
<g>
</g>
<g>
</g>
<g>
</g>
<g>
</g>
<g>
</g>
<g>
</g>
<g>
</g>
<g>
</g>
<g>
</g>
<g>
</g>
<g>
</g>
<g>
</g>
</svg>
